/* XPM */
static char *east[] = {
"16 16 3 1",
"Y c #FFFF00",
". c #000000",
"W c #FFFFFF",
"................",
"................",
"..YYYYYYYYYYYY..",
"..YWW...........",
"..YWW...........",
"..YWW...........",
"..YWW...........",
"..YWW...........",
"..YYYYYYYYYYYY..",
"..YYYYYYYYYYYY..",
"..YWW...........",
"..YWW...........",
"..YWW...........",
"..YWW...........",
"..YYYYYYYYYYYY..",
"................"
};