/* XPM */
static char *north[] = {
"16 16 2 1",
"R c #FF0000",
". c #000000",
"................",
"................",
"..RRR......RRR..",
"..RRR.....RRRR..",
"..RRR....RRRRR..",
"..RRR...RR.RRR..",
"..RRR..RR..RRR..",
"..RRR.RR...RRR..",
"..RRRRR....RRR..",
"..RRRR.....RRR..",
"..RRR......RRR..",
"................",
"................",
"................",
"................",
"................"
};