/* XPM */
static char *south[] = {
"16 16 2 1",
"B c #0000FF",
". c #000000",
"................",
"................",
"..BBBBBBBBB.....",
"..BB............",
"..BB............",
"..BBBBBBBBB.....",
"........BBB.....",
"........BBB.....",
"........BBB.....",
"........BBB.....",
"........BBB.....",
"..BBBBBBBBB.....",
"................",
"................",
"................",
"................"
};