/* XPM */
static char *west[] = {
"16 16 2 1",
"G c #00FF00",
". c #000000",
"................",
"................",
"..GGG......GGG..",
"..GGG......GGG..",
"..GGG......GGG..",
"..GGG..GG..GGG..",
"..GGG..GG..GGG..",
"..GGG.GGG.GGGG..",
"..GGGGGGGGGGGG..",
"..GGGGGGGGGGGG..",
"..GGGG....GGGG..",
"..GGG......GGG..",
"..GGG......GGG..",
"................",
"................",
"................"
};